<?xml version="1.0" encoding="UTF-8" standalone="no"?>
<svg
   version="1.1"
   width="297.0022mm"
   height="210.0072mm"
   viewBox="0.0000 0.0000 297.0022 210.0072"
   id="svg6046"
   sodipodi:docname="Circuiti.svg"
   inkscape:version="1.2.2 (b0a8486541, 2022-12-01)"
   xmlns:inkscape="http://www.inkscape.org/namespaces/inkscape"
   xmlns:sodipodi="http://sodipodi.sourceforge.net/DTD/sodipodi-0.dtd"
   xmlns="http://www.w3.org/2000/svg"
   xmlns:svg="http://www.w3.org/2000/svg">
  <defs
     id="defs6050" />
  <sodipodi:namedview
     id="namedview6048"
     pagecolor="#ffffff"
     bordercolor="#000000"
     borderopacity="0.25"
     inkscape:showpageshadow="2"
     inkscape:pageopacity="0.0"
     inkscape:pagecheckerboard="0"
     inkscape:deskcolor="#d1d1d1"
     inkscape:document-units="mm"
     showgrid="false"
     inkscape:zoom="0.69933128"
     inkscape:cx="691.37477"
     inkscape:cy="421.11658"
     inkscape:window-width="1920"
     inkscape:window-height="1011"
     inkscape:window-x="0"
     inkscape:window-y="0"
     inkscape:window-maximized="1"
     inkscape:current-layer="svg6046" />
  <title
     id="title3058">SVG Image created as Circuiti.svg date 2025/11/30 11:22:06 </title>
  <desc
     id="desc3060">Image generated by Eeschema-SVG </desc>
  <g
     style="fill:#000000; fill-opacity:1.0000;stroke:#000000; stroke-opacity:1.0000; stroke-linecap:round; stroke-linejoin:round;"
     transform="translate(0 0) scale(1 1)"
     id="g3062" />
  <g
     style="fill:#000000; fill-opacity:0.0;  stroke:#000000; stroke-width:0.0000; stroke-opacity:1;  stroke-linecap:round; stroke-linejoin:round;"
     id="g3064" />
  <g
     style="fill:#000000; fill-opacity:0.0;  stroke:#000000; stroke-width:0.3000; stroke-opacity:1;  stroke-linecap:round; stroke-linejoin:round;"
     id="g5224">
    <text
       x="178.0022"
       y="180.7572"
       textLength="0.9000"
       font-size="2.0000"
       lengthAdjust="spacingAndGlyphs"
       text-anchor="start"
       opacity="0"
       id="text5218" />
    <g
       class="stroked-text"
       id="g5222">
      <desc
         id="desc5220" />
    </g>
  </g>
  <g
     style="fill:#000000;fill-opacity:0;stroke:#000000;stroke-width:0.1524;stroke-linecap:round;stroke-linejoin:round;stroke-opacity:1"
     id="g5410"
     transform="matrix(7.1299344,0,0,7.1299344,-708.47509,-849.52947)">
    <text
       x="178.0022"
       y="177.7572"
       textLength="0.45719999"
       font-size="2px"
       lengthAdjust="spacingAndGlyphs"
       text-anchor="start"
       opacity="0"
       id="text5226" />
    <g
       class="stroked-text"
       id="g5230">
      <desc
         id="desc5228" />
    </g>
    <text
       x="178.0022"
       y="174.7572"
       textLength="0.45719999"
       font-size="2px"
       lengthAdjust="spacingAndGlyphs"
       text-anchor="start"
       opacity="0"
       id="text5232" />
    <g
       class="stroked-text"
       id="g5236">
      <desc
         id="desc5234" />
    </g>
    <text
       x="178.0022"
       y="171.7572"
       textLength="0.45719999"
       font-size="2px"
       lengthAdjust="spacingAndGlyphs"
       text-anchor="start"
       opacity="0"
       id="text5238" />
    <g
       class="stroked-text"
       id="g5242">
      <desc
         id="desc5240" />
    </g>
    <text
       x="178.0022"
       y="168.7572"
       textLength="0.45719999"
       font-size="2px"
       lengthAdjust="spacingAndGlyphs"
       text-anchor="start"
       opacity="0"
       id="text5244" />
    <g
       class="stroked-text"
       id="g5248">
      <desc
         id="desc5246" />
    </g>
    <g
       id="g5256">
      <path
         style="fill:none;fill-opacity:0;stroke:#000000;stroke-width:0.1524;stroke-linecap:round;stroke-linejoin:round;stroke-opacity:1"
         d="m 120.65,128.27 v -1.016"
         id="path5254" />
    </g>
    <g
       style="fill:#000000;fill-opacity:1;stroke:#000000;stroke-width:0.1524;stroke-linecap:round;stroke-linejoin:round;stroke-opacity:1"
       id="g5260">
      <path
         style="fill:#000000;fill-opacity:1;fill-rule:evenodd;stroke:#000000;stroke-width:0.1524;stroke-linecap:round;stroke-linejoin:round;stroke-opacity:1"
         d="m 120.65,126.873 0.508,1.143 h -1.016 z"
         id="path5258" />
    </g>
    <g
       style="fill:#000000;fill-opacity:0;stroke:#000000;stroke-width:0.254;stroke-linecap:round;stroke-linejoin:round;stroke-opacity:1"
       id="g5264">
      <rect
         x="118.11"
         y="124.714"
         width="5.0799999"
         height="2.0320001"
         rx="0.000000"
         id="rect5262" />
    </g>
    <g
       style="fill:#000000;fill-opacity:0;stroke:#000000;stroke-width:0.1524;stroke-linecap:round;stroke-linejoin:round;stroke-opacity:1"
       id="g5408">
      <path
         d="m 123.19,125.73 h 1.27"
         id="path5266" />
      <text
         x="123.825"
         y="125.476"
         textLength="1.4127001"
         font-size="1.6933px"
         lengthAdjust="spacingAndGlyphs"
         text-anchor="middle"
         opacity="0"
         id="text5268">1</text>
      <g
         class="stroked-text"
         id="g5282">
        <desc
           id="desc5270">1</desc>
        <path
           d="m 124.1879,125.3125 h -0.7257"
           id="path5272" />
        <path
           d="m 123.825,125.3125 v -1.27"
           id="path5274" />
        <path
           d="m 123.825,124.0425 -0.1209,0.1815"
           id="path5276" />
        <path
           d="m 123.7041,124.224 -0.121,0.1209"
           id="path5278" />
        <path
           d="m 123.5831,124.3449 -0.1209,0.0605"
           id="path5280" />
      </g>
      <path
         d="m 120.65,128.27 v 1.27"
         id="path5284" />
      <g
         transform="rotate(-90,120.396,128.905)"
         id="g5288">
        <text
           x="120.396"
           y="128.905"
           textLength="1.4127001"
           font-size="1.6933px"
           lengthAdjust="spacingAndGlyphs"
           text-anchor="middle"
           opacity="0"
           id="text5286">2</text>
      </g>
      <g
         class="stroked-text"
         id="g5312">
        <desc
           id="desc5290">2</desc>
        <path
           d="m 119.0835,129.2677 -0.0605,-0.0604"
           id="path5292" />
        <path
           d="m 119.023,129.2073 -0.0605,-0.121"
           id="path5294" />
        <path
           d="m 118.9625,129.0863 v -0.3024"
           id="path5296" />
        <path
           d="m 118.9625,128.7839 0.0605,-0.1209"
           id="path5298" />
        <path
           d="m 119.023,128.663 0.0605,-0.0605"
           id="path5300" />
        <path
           d="m 119.0835,128.6025 0.1209,-0.0605"
           id="path5302" />
        <path
           d="m 119.2044,128.542 h 0.121"
           id="path5304" />
        <path
           d="m 119.3254,128.542 0.1814,0.0605"
           id="path5306" />
        <path
           d="m 119.5068,128.6025 0.7257,0.7257"
           id="path5308" />
        <path
           d="M 120.2325,129.3282 V 128.542"
           id="path5310" />
      </g>
      <path
         d="m 118.11,125.73 h -1.27"
         id="path5314" />
      <text
         x="117.475"
         y="125.476"
         textLength="1.4127001"
         font-size="1.6933px"
         lengthAdjust="spacingAndGlyphs"
         text-anchor="middle"
         opacity="0"
         id="text5316">3</text>
      <g
         class="stroked-text"
         id="g5346">
        <desc
           id="desc5318">3</desc>
        <path
           d="m 117.0517,124.0425 h 0.7862"
           id="path5320" />
        <path
           d="m 117.8379,124.0425 -0.4234,0.4838"
           id="path5322" />
        <path
           d="m 117.4145,124.5263 h 0.1815"
           id="path5324" />
        <path
           d="m 117.596,124.5263 0.1209,0.0605"
           id="path5326" />
        <path
           d="m 117.7169,124.5868 0.0605,0.0605"
           id="path5328" />
        <path
           d="m 117.7774,124.6473 0.0605,0.1209"
           id="path5330" />
        <path
           d="m 117.8379,124.7682 v 0.3024"
           id="path5332" />
        <path
           d="m 117.8379,125.0706 -0.0605,0.121"
           id="path5334" />
        <path
           d="m 117.7774,125.1916 -0.0605,0.0605"
           id="path5336" />
        <path
           d="m 117.7169,125.2521 -0.1209,0.0604"
           id="path5338" />
        <path
           d="m 117.596,125.3125 h -0.3629"
           id="path5340" />
        <path
           d="m 117.2331,125.3125 -0.1209,-0.0604"
           id="path5342" />
        <path
           d="m 117.1122,125.2521 -0.0605,-0.0605"
           id="path5344" />
      </g>
      <text
         x="120.65"
         y="122.555"
         textLength="4.8597999"
         font-size="1.6933px"
         lengthAdjust="spacingAndGlyphs"
         text-anchor="middle"
         opacity="0"
         id="text5348">1 kΩ</text>
      <g
         class="stroked-text"
         id="g5406">
        <desc
           id="desc5350">1 kΩ</desc>
        <path
           d="m 119.2893,122.4995 h -0.7257"
           id="path5352" />
        <path
           d="m 118.9264,122.4995 v -1.27"
           id="path5354" />
        <path
           d="m 118.9264,121.2295 -0.1209,0.1815"
           id="path5356" />
        <path
           d="m 118.8055,121.411 -0.121,0.1209"
           id="path5358" />
        <path
           d="m 118.6845,121.5319 -0.1209,0.0605"
           id="path5360" />
        <path
           d="m 120.8011,122.4995 v -1.27"
           id="path5362" />
        <path
           d="m 120.9221,122.0157 0.3628,0.4838"
           id="path5364" />
        <path
           d="m 121.2849,121.6529 -0.4838,0.4838"
           id="path5366" />
        <path
           d="m 121.7688,122.4995 h 0.3023"
           id="path5368" />
        <path
           d="m 122.0711,122.4995 v -0.2419"
           id="path5370" />
        <path
           d="m 122.0711,122.2576 -0.1209,-0.0605"
           id="path5372" />
        <path
           d="m 121.9502,122.1971 -0.121,-0.1209"
           id="path5374" />
        <path
           d="m 121.8292,122.0762 -0.0604,-0.1814"
           id="path5376" />
        <path
           d="m 121.7688,121.8948 v -0.3024"
           id="path5378" />
        <path
           d="m 121.7688,121.5924 0.0604,-0.1814"
           id="path5380" />
        <path
           d="m 121.8292,121.411 0.121,-0.121"
           id="path5382" />
        <path
           d="m 121.9502,121.29 0.1814,-0.0605"
           id="path5384" />
        <path
           d="m 122.1316,121.2295 h 0.2419"
           id="path5386" />
        <path
           d="m 122.3735,121.2295 0.1814,0.0605"
           id="path5388" />
        <path
           d="m 122.5549,121.29 0.121,0.121"
           id="path5390" />
        <path
           d="m 122.6759,121.411 0.0605,0.1814"
           id="path5392" />
        <path
           d="m 122.7364,121.5924 v 0.3024"
           id="path5394" />
        <path
           d="m 122.7364,121.8948 -0.0605,0.1814"
           id="path5396" />
        <path
           d="m 122.6759,122.0762 -0.121,0.1209"
           id="path5398" />
        <path
           d="m 122.5549,122.1971 -0.1209,0.0605"
           id="path5400" />
        <path
           d="m 122.434,122.2576 v 0.2419"
           id="path5402" />
        <path
           d="m 122.434,122.4995 h 0.3024"
           id="path5404" />
      </g>
    </g>
  </g>
  <g
     style="fill:#000000;fill-opacity:0;stroke:#000000;stroke-width:0.1524;stroke-linecap:round;stroke-linejoin:round;stroke-opacity:1"
     id="g5422"
     transform="matrix(7.1299344,0,0,7.1299344,-708.47509,-849.52947)">
    <g
       id="g5420">
      <path
         style="fill:none;fill-opacity:0;stroke:#000000;stroke-width:0.1524;stroke-linecap:round;stroke-linejoin:round;stroke-opacity:1"
         d="m 137.795,123.825 h 1.27"
         id="path5412" />
      <path
         style="fill:none;fill-opacity:0;stroke:#000000;stroke-width:0.1524;stroke-linecap:round;stroke-linejoin:round;stroke-opacity:1"
         d="m 138.303,123.19 h 0.254"
         id="path5414" />
      <path
         style="fill:none;fill-opacity:0;stroke:#000000;stroke-width:0.1524;stroke-linecap:round;stroke-linejoin:round;stroke-opacity:1"
         d="m 138.43,124.46 v 1.27"
         id="path5416" />
      <path
         style="fill:none;fill-opacity:0;stroke:#000000;stroke-width:0.1524;stroke-linecap:round;stroke-linejoin:round;stroke-opacity:1"
         d="m 139.7,124.46 h -2.54"
         id="path5418" />
    </g>
  </g>
  <g
     style="fill:#000000;fill-opacity:0;stroke:#000000;stroke-width:0.1524;stroke-linecap:round;stroke-linejoin:round;stroke-opacity:1"
     id="g5618"
     transform="matrix(7.1299344,0,0,7.1299344,-708.47509,-849.52947)">
    <g
       id="g5434">
      <path
         style="fill:none;fill-opacity:0;stroke:#000000;stroke-width:0.1524;stroke-linecap:round;stroke-linejoin:round;stroke-opacity:1"
         d="m 121.285,141.605 1.27,-1.27"
         id="path5424" />
      <path
         style="fill:none;fill-opacity:0;stroke:#000000;stroke-width:0.1524;stroke-linecap:round;stroke-linejoin:round;stroke-opacity:1"
         d="m 126.365,136.525 1.27,-1.27"
         id="path5426" />
      <path
         style="fill:none;fill-opacity:0;stroke:#000000;stroke-width:0.1524;stroke-linecap:round;stroke-linejoin:round;stroke-opacity:1"
         d="m 126.365,135.255 h 1.27 v 1.27"
         id="path5428" />
      <path
         style="fill:none;fill-opacity:0;stroke:#000000;stroke-width:0.1524;stroke-linecap:round;stroke-linejoin:round;stroke-opacity:1"
         d="m 124.714,134.62 h 0.508"
         id="path5430" />
      <path
         style="fill:none;fill-opacity:0;stroke:#000000;stroke-width:0.1524;stroke-linecap:round;stroke-linejoin:round;stroke-opacity:1"
         d="m 124.968,134.366 v 0.508"
         id="path5432" />
    </g>
    <g
       style="fill:#000000;fill-opacity:0;stroke:#000000;stroke-width:0.254;stroke-linecap:round;stroke-linejoin:round;stroke-opacity:1"
       id="g5438">
      <circle
         cx="124.46"
         cy="138.42999"
         r="2.54"
         id="circle5436" />
    </g>
    <g
       style="fill:#000000;fill-opacity:0;stroke:#000000;stroke-width:0.3175;stroke-linecap:round;stroke-linejoin:round;stroke-opacity:1"
       id="g5450">
      <text
         x="124.46"
         y="139.7001"
         textLength="2.6217"
         font-size="3.3866px"
         lengthAdjust="spacingAndGlyphs"
         text-anchor="middle"
         opacity="0"
         id="text5440">V</text>
      <g
         class="stroked-text"
         id="g5448">
        <desc
           id="desc5442">V</desc>
        <path
           d="m 123.6134,137.0485 0.8466,2.54"
           id="path5444" />
        <path
           d="m 124.46,139.5885 0.8467,-2.54"
           id="path5446" />
      </g>
    </g>
    <g
       style="fill:#000000;fill-opacity:0;stroke:#000000;stroke-width:0.1524;stroke-linecap:round;stroke-linejoin:round;stroke-opacity:1"
       id="g5616">
      <path
         d="m 124.46,140.97 v 2.54"
         id="path5452" />
      <path
         d="m 124.46,135.89 v -2.54"
         id="path5454" />
      <text
         x="132.91679"
         y="139.065"
         textLength="9.2744999"
         font-size="1.6933px"
         lengthAdjust="spacingAndGlyphs"
         text-anchor="middle"
         opacity="0"
         id="text5456">Voltmetro</text>
      <g
         class="stroked-text"
         id="g5614">
        <desc
           id="desc5458">Voltmetro</desc>
        <path
           d="m 128.5021,137.7395 0.4233,1.27"
           id="path5460" />
        <path
           d="m 128.9254,139.0095 0.4234,-1.27"
           id="path5462" />
        <path
           d="m 129.9536,139.0095 -0.121,-0.0604"
           id="path5464" />
        <path
           d="m 129.8326,138.9491 -0.0605,-0.0605"
           id="path5466" />
        <path
           d="m 129.7721,138.8886 -0.0604,-0.121"
           id="path5468" />
        <path
           d="m 129.7117,138.7676 v -0.3628"
           id="path5470" />
        <path
           d="m 129.7117,138.4048 0.0604,-0.121"
           id="path5472" />
        <path
           d="m 129.7721,138.2838 0.0605,-0.0605"
           id="path5474" />
        <path
           d="m 129.8326,138.2233 0.121,-0.0604"
           id="path5476" />
        <path
           d="m 129.9536,138.1629 h 0.1814"
           id="path5478" />
        <path
           d="m 130.135,138.1629 0.1209,0.0604"
           id="path5480" />
        <path
           d="m 130.2559,138.2233 0.0605,0.0605"
           id="path5482" />
        <path
           d="m 130.3164,138.2838 0.0605,0.121"
           id="path5484" />
        <path
           d="m 130.3769,138.4048 v 0.3628"
           id="path5486" />
        <path
           d="m 130.3769,138.7676 -0.0605,0.121"
           id="path5488" />
        <path
           d="m 130.3164,138.8886 -0.0605,0.0605"
           id="path5490" />
        <path
           d="m 130.2559,138.9491 -0.1209,0.0604"
           id="path5492" />
        <path
           d="m 130.135,139.0095 h -0.1814"
           id="path5494" />
        <path
           d="m 131.1026,139.0095 -0.121,-0.0604"
           id="path5496" />
        <path
           d="m 130.9816,138.9491 -0.0605,-0.121"
           id="path5498" />
        <path
           d="m 130.9211,138.8281 v -1.0886"
           id="path5500" />
        <path
           d="m 131.4049,138.1629 h 0.4838"
           id="path5502" />
        <path
           d="m 131.5863,137.7395 v 1.0886"
           id="path5504" />
        <path
           d="m 131.5863,138.8281 0.0605,0.121"
           id="path5506" />
        <path
           d="m 131.6468,138.9491 0.121,0.0604"
           id="path5508" />
        <path
           d="m 131.7678,139.0095 h 0.1209"
           id="path5510" />
        <path
           d="m 132.312,139.0095 v -0.8466"
           id="path5512" />
        <path
           d="m 132.312,138.2838 0.0605,-0.0605"
           id="path5514" />
        <path
           d="m 132.3725,138.2233 0.121,-0.0604"
           id="path5516" />
        <path
           d="m 132.4935,138.1629 h 0.1814"
           id="path5518" />
        <path
           d="m 132.6749,138.1629 0.1209,0.0604"
           id="path5520" />
        <path
           d="m 132.7958,138.2233 0.0605,0.121"
           id="path5522" />
        <path
           d="m 132.8563,138.3443 v 0.6652"
           id="path5524" />
        <path
           d="m 132.8563,138.3443 0.0605,-0.121"
           id="path5526" />
        <path
           d="m 132.9168,138.2233 0.1209,-0.0604"
           id="path5528" />
        <path
           d="m 133.0377,138.1629 h 0.1815"
           id="path5530" />
        <path
           d="m 133.2192,138.1629 0.1209,0.0604"
           id="path5532" />
        <path
           d="m 133.3401,138.2233 0.0605,0.121"
           id="path5534" />
        <path
           d="m 133.4006,138.3443 v 0.6652"
           id="path5536" />
        <path
           d="m 134.4891,138.9491 -0.1209,0.0604"
           id="path5538" />
        <path
           d="m 134.3682,139.0095 h -0.2419"
           id="path5540" />
        <path
           d="m 134.1263,139.0095 -0.121,-0.0604"
           id="path5542" />
        <path
           d="m 134.0053,138.9491 -0.0604,-0.121"
           id="path5544" />
        <path
           d="m 133.9449,138.8281 v -0.4838"
           id="path5546" />
        <path
           d="m 133.9449,138.3443 0.0604,-0.121"
           id="path5548" />
        <path
           d="m 134.0053,138.2233 0.121,-0.0604"
           id="path5550" />
        <path
           d="m 134.1263,138.1629 h 0.2419"
           id="path5552" />
        <path
           d="m 134.3682,138.1629 0.1209,0.0604"
           id="path5554" />
        <path
           d="m 134.4891,138.2233 0.0605,0.121"
           id="path5556" />
        <path
           d="m 134.5496,138.3443 v 0.1209"
           id="path5558" />
        <path
           d="m 134.5496,138.4652 -0.6047,0.121"
           id="path5560" />
        <path
           d="m 134.9125,138.1629 h 0.4838"
           id="path5562" />
        <path
           d="m 135.0939,137.7395 v 1.0886"
           id="path5564" />
        <path
           d="m 135.0939,138.8281 0.0605,0.121"
           id="path5566" />
        <path
           d="m 135.1544,138.9491 0.121,0.0604"
           id="path5568" />
        <path
           d="m 135.2754,139.0095 h 0.1209"
           id="path5570" />
        <path
           d="m 135.8196,139.0095 v -0.8466"
           id="path5572" />
        <path
           d="m 135.8196,138.4048 0.0605,-0.121"
           id="path5574" />
        <path
           d="m 135.8801,138.2838 0.0605,-0.0605"
           id="path5576" />
        <path
           d="m 135.9406,138.2233 0.1209,-0.0604"
           id="path5578" />
        <path
           d="m 136.0615,138.1629 h 0.121"
           id="path5580" />
        <path
           d="m 136.7873,139.0095 -0.121,-0.0604"
           id="path5582" />
        <path
           d="m 136.6663,138.9491 -0.0605,-0.0605"
           id="path5584" />
        <path
           d="m 136.6058,138.8886 -0.0604,-0.121"
           id="path5586" />
        <path
           d="m 136.5454,138.7676 v -0.3628"
           id="path5588" />
        <path
           d="m 136.5454,138.4048 0.0604,-0.121"
           id="path5590" />
        <path
           d="m 136.6058,138.2838 0.0605,-0.0605"
           id="path5592" />
        <path
           d="m 136.6663,138.2233 0.121,-0.0604"
           id="path5594" />
        <path
           d="m 136.7873,138.1629 h 0.1814"
           id="path5596" />
        <path
           d="m 136.9687,138.1629 0.1209,0.0604"
           id="path5598" />
        <path
           d="m 137.0896,138.2233 0.0605,0.0605"
           id="path5600" />
        <path
           d="m 137.1501,138.2838 0.0605,0.121"
           id="path5602" />
        <path
           d="m 137.2106,138.4048 v 0.3628"
           id="path5604" />
        <path
           d="m 137.2106,138.7676 -0.0605,0.121"
           id="path5606" />
        <path
           d="m 137.1501,138.8886 -0.0605,0.0605"
           id="path5608" />
        <path
           d="m 137.0896,138.9491 -0.1209,0.0604"
           id="path5610" />
        <path
           d="m 136.9687,139.0095 h -0.1814"
           id="path5612" />
      </g>
    </g>
  </g>
  <g
     style="fill:#000000;fill-opacity:0;stroke:#000000;stroke-width:0.1524;stroke-linecap:round;stroke-linejoin:round;stroke-opacity:1"
     id="g5672"
     transform="matrix(7.1299344,0,0,7.1299344,-708.47509,-849.52947)">
    <g
       id="g5670">
      <path
         style="fill:none;fill-opacity:0;stroke:#000000;stroke-width:0.1524;stroke-linecap:round;stroke-linejoin:round;stroke-opacity:1"
         d="m 105.918,124.46 0.762,-1.27"
         id="path5620" />
      <path
         style="fill:none;fill-opacity:0;stroke:#000000;stroke-width:0.1524;stroke-linecap:round;stroke-linejoin:round;stroke-opacity:1"
         d="m 106.68,125.73 v -2.54"
         id="path5622" />
      <path
         style="fill:none;fill-opacity:0;stroke:#000000;stroke-width:0.1524;stroke-linecap:round;stroke-linejoin:round;stroke-opacity:1"
         d="m 106.68,123.19 0.762,1.27"
         id="path5624" />
      <text
         x="106.68"
         y="121.285"
         textLength="4.0737"
         font-size="1.6933px"
         lengthAdjust="spacingAndGlyphs"
         text-anchor="middle"
         opacity="0"
         id="text5626">+5V</text>
      <g
         class="stroked-text"
         id="g5668">
        <desc
           id="desc5628">+5V</desc>
        <path
           d="m 105.0471,120.7457 h 0.9677"
           id="path5630" />
        <path
           d="m 105.5309,121.2295 v -0.9676"
           id="path5632" />
        <path
           d="m 107.2243,119.9595 h -0.6048"
           id="path5634" />
        <path
           d="m 106.6195,119.9595 -0.0604,0.6048"
           id="path5636" />
        <path
           d="m 106.5591,120.5643 0.0604,-0.0605"
           id="path5638" />
        <path
           d="m 106.6195,120.5038 0.121,-0.0605"
           id="path5640" />
        <path
           d="m 106.7405,120.4433 h 0.3024"
           id="path5642" />
        <path
           d="m 107.0429,120.4433 0.1209,0.0605"
           id="path5644" />
        <path
           d="m 107.1638,120.5038 0.0605,0.0605"
           id="path5646" />
        <path
           d="m 107.2243,120.5643 0.0605,0.1209"
           id="path5648" />
        <path
           d="m 107.2848,120.6852 v 0.3024"
           id="path5650" />
        <path
           d="m 107.2848,120.9876 -0.0605,0.121"
           id="path5652" />
        <path
           d="m 107.2243,121.1086 -0.0605,0.0605"
           id="path5654" />
        <path
           d="m 107.1638,121.1691 -0.1209,0.0604"
           id="path5656" />
        <path
           d="m 107.0429,121.2295 h -0.3024"
           id="path5658" />
        <path
           d="m 106.7405,121.2295 -0.121,-0.0604"
           id="path5660" />
        <path
           d="m 106.6195,121.1691 -0.0604,-0.0605"
           id="path5662" />
        <path
           d="m 107.6476,119.9595 0.4233,1.27"
           id="path5664" />
        <path
           d="m 108.0709,121.2295 0.4234,-1.27"
           id="path5666" />
      </g>
    </g>
  </g>
  <g
     style="fill:#000000;fill-opacity:0;stroke:#000000;stroke-width:0.1524;stroke-linecap:round;stroke-linejoin:round;stroke-opacity:1"
     id="g6010"
     transform="matrix(7.1299344,0,0,7.1299344,-708.47509,-849.52947)">
    <g
       id="g5674" />
    <g
       style="fill:#000000;fill-opacity:0;stroke:#000000;stroke-width:0.254;stroke-linecap:round;stroke-linejoin:round;stroke-opacity:1"
       id="g5694">
      <path
         d="m 118.618,137.922 a 0.381,0.381 0 0 0 -0.762,0"
         id="path5676" />
      <path
         d="m 116.84,138.938 a 0.381,0.381 0 0 0 0.762,0"
         id="path5678" />
      <path
         style="fill:none;fill-opacity:0;stroke:#000000;stroke-width:0.254;stroke-linecap:round;stroke-linejoin:round;stroke-opacity:1"
         d="m 118.618,137.922 0.127,0.508"
         id="path5680" />
      <path
         style="fill:none;fill-opacity:0;stroke:#000000;stroke-width:0.254;stroke-linecap:round;stroke-linejoin:round;stroke-opacity:1"
         d="m 117.856,137.922 -0.254,1.016"
         id="path5682" />
      <path
         style="fill:none;fill-opacity:0;stroke:#000000;stroke-width:0.254;stroke-linecap:round;stroke-linejoin:round;stroke-opacity:1"
         d="m 116.84,138.938 -0.254,-1.016"
         id="path5684" />
      <path
         style="fill:none;fill-opacity:0;stroke:#000000;stroke-width:0.254;stroke-linecap:round;stroke-linejoin:round;stroke-opacity:1"
         d="m 115.824,137.922 -0.254,1.016"
         id="path5686" />
      <path
         style="fill:none;fill-opacity:0;stroke:#000000;stroke-width:0.254;stroke-linecap:round;stroke-linejoin:round;stroke-opacity:1"
         d="m 114.808,138.938 -0.127,-0.508"
         id="path5688" />
      <path
         d="m 116.586,137.922 a 0.381,0.381 0 0 0 -0.762,0"
         id="path5690" />
      <path
         d="m 114.808,138.938 a 0.381,0.381 0 0 0 0.762,0"
         id="path5692" />
    </g>
    <g
       style="fill:#000000;fill-opacity:0;stroke:#000000;stroke-width:0.1524;stroke-linecap:round;stroke-linejoin:round;stroke-opacity:1"
       id="g5700">
      <path
         style="fill:none;fill-opacity:0;stroke:#000000;stroke-width:0.1524;stroke-linecap:round;stroke-linejoin:round;stroke-opacity:1"
         d="m 116.586,134.62 h -0.508"
         id="path5696" />
      <path
         style="fill:none;fill-opacity:0;stroke:#000000;stroke-width:0.1524;stroke-linecap:round;stroke-linejoin:round;stroke-opacity:1"
         d="m 116.332,134.366 v 0.508"
         id="path5698" />
    </g>
    <g
       style="fill:#000000;fill-opacity:0;stroke:#000000;stroke-width:0.254;stroke-linecap:round;stroke-linejoin:round;stroke-opacity:1"
       id="g5704">
      <circle
         cx="116.84"
         cy="138.42999"
         r="2.54"
         id="circle5702" />
    </g>
    <g
       style="fill:#000000;fill-opacity:0;stroke:#000000;stroke-width:0.1524;stroke-linecap:round;stroke-linejoin:round;stroke-opacity:1"
       id="g6008">
      <path
         d="m 116.84,140.97 v 2.54"
         id="path5706" />
      <path
         d="m 116.84,135.89 v -2.54"
         id="path5708" />
      <text
         x="106.5688"
         y="139.065"
         textLength="12.9031"
         font-size="1.6933px"
         lengthAdjust="spacingAndGlyphs"
         text-anchor="middle"
         opacity="0"
         id="text5710">Oscilloscopio</text>
      <g
         class="stroked-text"
         id="g6006">
        <desc
           id="desc5712">Oscilloscopio</desc>
        <path
           d="m 100.7631,137.7395 h 0.2419"
           id="path5714" />
        <path
           d="m 101.005,137.7395 0.121,0.0605"
           id="path5716" />
        <path
           d="m 101.126,137.8 0.1209,0.121"
           id="path5718" />
        <path
           d="m 101.2469,137.921 0.0605,0.2419"
           id="path5720" />
        <path
           d="m 101.3074,138.1629 v 0.4233"
           id="path5722" />
        <path
           d="m 101.3074,138.5862 -0.0605,0.2419"
           id="path5724" />
        <path
           d="m 101.2469,138.8281 -0.1209,0.121"
           id="path5726" />
        <path
           d="m 101.126,138.9491 -0.121,0.0604"
           id="path5728" />
        <path
           d="m 101.005,139.0095 h -0.2419"
           id="path5730" />
        <path
           d="m 100.7631,139.0095 -0.1209,-0.0604"
           id="path5732" />
        <path
           d="m 100.6422,138.9491 -0.121,-0.121"
           id="path5734" />
        <path
           d="m 100.5212,138.8281 -0.0604,-0.2419"
           id="path5736" />
        <path
           d="m 100.4608,138.5862 v -0.4233"
           id="path5738" />
        <path
           d="m 100.4608,138.1629 0.0604,-0.2419"
           id="path5740" />
        <path
           d="m 100.5212,137.921 0.121,-0.121"
           id="path5742" />
        <path
           d="m 100.6422,137.8 0.1209,-0.0605"
           id="path5744" />
        <path
           d="m 101.7913,138.9491 0.1209,0.0604"
           id="path5746" />
        <path
           d="m 101.9122,139.0095 h 0.2419"
           id="path5748" />
        <path
           d="m 102.1541,139.0095 0.121,-0.0604"
           id="path5750" />
        <path
           d="m 102.2751,138.9491 0.0604,-0.121"
           id="path5752" />
        <path
           d="m 102.3355,138.8281 v -0.0605"
           id="path5754" />
        <path
           d="m 102.3355,138.7676 -0.0604,-0.1209"
           id="path5756" />
        <path
           d="m 102.2751,138.6467 -0.121,-0.0605"
           id="path5758" />
        <path
           d="m 102.1541,138.5862 h -0.1814"
           id="path5760" />
        <path
           d="m 101.9727,138.5862 -0.121,-0.0605"
           id="path5762" />
        <path
           d="m 101.8517,138.5257 -0.0604,-0.1209"
           id="path5764" />
        <path
           d="m 101.7913,138.4048 v -0.0605"
           id="path5766" />
        <path
           d="m 101.7913,138.3443 0.0604,-0.121"
           id="path5768" />
        <path
           d="m 101.8517,138.2233 0.121,-0.0604"
           id="path5770" />
        <path
           d="m 101.9727,138.1629 h 0.1814"
           id="path5772" />
        <path
           d="m 102.1541,138.1629 0.121,0.0604"
           id="path5774" />
        <path
           d="m 103.4241,138.9491 -0.1209,0.0604"
           id="path5776" />
        <path
           d="m 103.3032,139.0095 h -0.2419"
           id="path5778" />
        <path
           d="m 103.0613,139.0095 -0.121,-0.0604"
           id="path5780" />
        <path
           d="m 102.9403,138.9491 -0.0605,-0.0605"
           id="path5782" />
        <path
           d="m 102.8798,138.8886 -0.0604,-0.121"
           id="path5784" />
        <path
           d="m 102.8194,138.7676 v -0.3628"
           id="path5786" />
        <path
           d="m 102.8194,138.4048 0.0604,-0.121"
           id="path5788" />
        <path
           d="m 102.8798,138.2838 0.0605,-0.0605"
           id="path5790" />
        <path
           d="m 102.9403,138.2233 0.121,-0.0604"
           id="path5792" />
        <path
           d="m 103.0613,138.1629 h 0.2419"
           id="path5794" />
        <path
           d="m 103.3032,138.1629 0.1209,0.0604"
           id="path5796" />
        <path
           d="m 103.9684,139.0095 v -0.8466"
           id="path5798" />
        <path
           d="M 103.9684,137.7395 103.908,137.8"
           id="path5800" />
        <path
           d="m 103.908,137.8 0.0604,0.0605"
           id="path5802" />
        <path
           d="M 103.9684,137.8605 104.0289,137.8"
           id="path5804" />
        <path
           d="m 104.0289,137.8 -0.0605,-0.0605"
           id="path5806" />
        <path
           d="m 103.9684,137.7395 v 0.121"
           id="path5808" />
        <path
           d="m 104.7547,139.0095 -0.121,-0.0604"
           id="path5810" />
        <path
           d="m 104.6337,138.9491 -0.0605,-0.121"
           id="path5812" />
        <path
           d="m 104.5732,138.8281 v -1.0886"
           id="path5814" />
        <path
           d="m 105.4199,139.0095 -0.121,-0.0604"
           id="path5816" />
        <path
           d="m 105.2989,138.9491 -0.0605,-0.121"
           id="path5818" />
        <path
           d="m 105.2384,138.8281 v -1.0886"
           id="path5820" />
        <path
           d="m 106.0851,139.0095 -0.121,-0.0604"
           id="path5822" />
        <path
           d="m 105.9641,138.9491 -0.0605,-0.0605"
           id="path5824" />
        <path
           d="m 105.9036,138.8886 -0.0604,-0.121"
           id="path5826" />
        <path
           d="m 105.8432,138.7676 v -0.3628"
           id="path5828" />
        <path
           d="m 105.8432,138.4048 0.0604,-0.121"
           id="path5830" />
        <path
           d="m 105.9036,138.2838 0.0605,-0.0605"
           id="path5832" />
        <path
           d="m 105.9641,138.2233 0.121,-0.0604"
           id="path5834" />
        <path
           d="m 106.0851,138.1629 h 0.1814"
           id="path5836" />
        <path
           d="m 106.2665,138.1629 0.1209,0.0604"
           id="path5838" />
        <path
           d="m 106.3874,138.2233 0.0605,0.0605"
           id="path5840" />
        <path
           d="m 106.4479,138.2838 0.0605,0.121"
           id="path5842" />
        <path
           d="m 106.5084,138.4048 v 0.3628"
           id="path5844" />
        <path
           d="m 106.5084,138.7676 -0.0605,0.121"
           id="path5846" />
        <path
           d="m 106.4479,138.8886 -0.0605,0.0605"
           id="path5848" />
        <path
           d="m 106.3874,138.9491 -0.1209,0.0604"
           id="path5850" />
        <path
           d="m 106.2665,139.0095 h -0.1814"
           id="path5852" />
        <path
           d="m 106.9922,138.9491 0.1209,0.0604"
           id="path5854" />
        <path
           d="m 107.1131,139.0095 h 0.2419"
           id="path5856" />
        <path
           d="m 107.355,139.0095 0.121,-0.0604"
           id="path5858" />
        <path
           d="m 107.476,138.9491 0.0604,-0.121"
           id="path5860" />
        <path
           d="m 107.5364,138.8281 v -0.0605"
           id="path5862" />
        <path
           d="m 107.5364,138.7676 -0.0604,-0.1209"
           id="path5864" />
        <path
           d="m 107.476,138.6467 -0.121,-0.0605"
           id="path5866" />
        <path
           d="m 107.355,138.5862 h -0.1814"
           id="path5868" />
        <path
           d="m 107.1736,138.5862 -0.121,-0.0605"
           id="path5870" />
        <path
           d="m 107.0526,138.5257 -0.0604,-0.1209"
           id="path5872" />
        <path
           d="m 106.9922,138.4048 v -0.0605"
           id="path5874" />
        <path
           d="m 106.9922,138.3443 0.0604,-0.121"
           id="path5876" />
        <path
           d="m 107.0526,138.2233 0.121,-0.0604"
           id="path5878" />
        <path
           d="m 107.1736,138.1629 h 0.1814"
           id="path5880" />
        <path
           d="m 107.355,138.1629 0.121,0.0604"
           id="path5882" />
        <path
           d="m 108.625,138.9491 -0.1209,0.0604"
           id="path5884" />
        <path
           d="m 108.5041,139.0095 h -0.2419"
           id="path5886" />
        <path
           d="m 108.2622,139.0095 -0.121,-0.0604"
           id="path5888" />
        <path
           d="m 108.1412,138.9491 -0.0605,-0.0605"
           id="path5890" />
        <path
           d="m 108.0807,138.8886 -0.0604,-0.121"
           id="path5892" />
        <path
           d="m 108.0203,138.7676 v -0.3628"
           id="path5894" />
        <path
           d="m 108.0203,138.4048 0.0604,-0.121"
           id="path5896" />
        <path
           d="m 108.0807,138.2838 0.0605,-0.0605"
           id="path5898" />
        <path
           d="m 108.1412,138.2233 0.121,-0.0604"
           id="path5900" />
        <path
           d="m 108.2622,138.1629 h 0.2419"
           id="path5902" />
        <path
           d="m 108.5041,138.1629 0.1209,0.0604"
           id="path5904" />
        <path
           d="m 109.3508,139.0095 -0.121,-0.0604"
           id="path5906" />
        <path
           d="m 109.2298,138.9491 -0.0605,-0.0605"
           id="path5908" />
        <path
           d="m 109.1693,138.8886 -0.0604,-0.121"
           id="path5910" />
        <path
           d="m 109.1089,138.7676 v -0.3628"
           id="path5912" />
        <path
           d="m 109.1089,138.4048 0.0604,-0.121"
           id="path5914" />
        <path
           d="m 109.1693,138.2838 0.0605,-0.0605"
           id="path5916" />
        <path
           d="m 109.2298,138.2233 0.121,-0.0604"
           id="path5918" />
        <path
           d="m 109.3508,138.1629 h 0.1814"
           id="path5920" />
        <path
           d="m 109.5322,138.1629 0.1209,0.0604"
           id="path5922" />
        <path
           d="m 109.6531,138.2233 0.0605,0.0605"
           id="path5924" />
        <path
           d="m 109.7136,138.2838 0.0605,0.121"
           id="path5926" />
        <path
           d="m 109.7741,138.4048 v 0.3628"
           id="path5928" />
        <path
           d="m 109.7741,138.7676 -0.0605,0.121"
           id="path5930" />
        <path
           d="m 109.7136,138.8886 -0.0605,0.0605"
           id="path5932" />
        <path
           d="m 109.6531,138.9491 -0.1209,0.0604"
           id="path5934" />
        <path
           d="m 109.5322,139.0095 h -0.1814"
           id="path5936" />
        <path
           d="m 110.3183,138.1629 v 1.27"
           id="path5938" />
        <path
           d="m 110.3183,138.2233 0.121,-0.0604"
           id="path5940" />
        <path
           d="m 110.4393,138.1629 h 0.2419"
           id="path5942" />
        <path
           d="m 110.6812,138.1629 0.1209,0.0604"
           id="path5944" />
        <path
           d="m 110.8021,138.2233 0.0605,0.0605"
           id="path5946" />
        <path
           d="m 110.8626,138.2838 0.0605,0.121"
           id="path5948" />
        <path
           d="m 110.9231,138.4048 v 0.3628"
           id="path5950" />
        <path
           d="m 110.9231,138.7676 -0.0605,0.121"
           id="path5952" />
        <path
           d="m 110.8626,138.8886 -0.0605,0.0605"
           id="path5954" />
        <path
           d="m 110.8021,138.9491 -0.1209,0.0604"
           id="path5956" />
        <path
           d="m 110.6812,139.0095 h -0.2419"
           id="path5958" />
        <path
           d="m 110.4393,139.0095 -0.121,-0.0604"
           id="path5960" />
        <path
           d="m 111.4673,139.0095 v -0.8466"
           id="path5962" />
        <path
           d="M 111.4673,137.7395 111.4069,137.8"
           id="path5964" />
        <path
           d="m 111.4069,137.8 0.0604,0.0605"
           id="path5966" />
        <path
           d="M 111.4673,137.8605 111.5278,137.8"
           id="path5968" />
        <path
           d="m 111.5278,137.8 -0.0605,-0.0605"
           id="path5970" />
        <path
           d="m 111.4673,137.7395 v 0.121"
           id="path5972" />
        <path
           d="m 112.2536,139.0095 -0.121,-0.0604"
           id="path5974" />
        <path
           d="m 112.1326,138.9491 -0.0605,-0.0605"
           id="path5976" />
        <path
           d="m 112.0721,138.8886 -0.0604,-0.121"
           id="path5978" />
        <path
           d="m 112.0117,138.7676 v -0.3628"
           id="path5980" />
        <path
           d="m 112.0117,138.4048 0.0604,-0.121"
           id="path5982" />
        <path
           d="m 112.0721,138.2838 0.0605,-0.0605"
           id="path5984" />
        <path
           d="m 112.1326,138.2233 0.121,-0.0604"
           id="path5986" />
        <path
           d="m 112.2536,138.1629 h 0.1814"
           id="path5988" />
        <path
           d="m 112.435,138.1629 0.1209,0.0604"
           id="path5990" />
        <path
           d="m 112.5559,138.2233 0.0605,0.0605"
           id="path5992" />
        <path
           d="m 112.6164,138.2838 0.0605,0.121"
           id="path5994" />
        <path
           d="m 112.6769,138.4048 v 0.3628"
           id="path5996" />
        <path
           d="m 112.6769,138.7676 -0.0605,0.121"
           id="path5998" />
        <path
           d="m 112.6164,138.8886 -0.0605,0.0605"
           id="path6000" />
        <path
           d="m 112.5559,138.9491 -0.1209,0.0604"
           id="path6002" />
        <path
           d="m 112.435,139.0095 h -0.1814"
           id="path6004" />
      </g>
    </g>
  </g>
  <g
     style="fill:#000000;fill-opacity:0;stroke:#000000;stroke-width:0.1524;stroke-linecap:round;stroke-linejoin:round;stroke-opacity:1"
     id="g6036"
     transform="matrix(7.1299344,0,0,7.1299344,-708.47509,-849.52947)">
    <path
       d="m 120.65,130.81 h 3.81"
       id="path6012" />
    <path
       d="m 116.84,130.81 h 3.81"
       id="path6014" />
    <path
       d="m 120.65,130.81 v -1.27"
       id="path6016" />
    <path
       d="m 116.84,133.35 v -2.54"
       id="path6018" />
    <path
       d="m 106.68,125.73 h 10.16"
       id="path6020" />
    <path
       d="m 116.84,147.32 h 7.62"
       id="path6022" />
    <path
       d="m 138.43,125.73 v 21.59"
       id="path6024" />
    <path
       d="m 124.46,147.32 h 13.97"
       id="path6026" />
    <path
       d="m 124.46,133.35 v -2.54"
       id="path6028" />
    <path
       d="m 124.46,125.73 h 13.97"
       id="path6030" />
    <path
       d="m 124.46,143.51 v 3.81"
       id="path6032" />
    <path
       d="m 116.84,147.32 v -3.81"
       id="path6034" />
  </g>
  <g
     style="fill:#000000;fill-opacity:1;stroke:#000000;stroke-width:0.1524;stroke-linecap:round;stroke-linejoin:round;stroke-opacity:1"
     id="g6044"
     transform="matrix(7.1299344,0,0,7.1299344,-708.47509,-849.52947)">
    <circle
       cx="124.46"
       cy="147.32001"
       r="0.45719999"
       id="circle6038" />
    <circle
       cx="120.65"
       cy="130.81"
       r="0.45719999"
       id="circle6040" />
    <circle
       cx="138.42999"
       cy="125.73"
       r="0.45719999"
       id="circle6042" />
  </g>
</svg>
