<?xml version="1.0" encoding="UTF-8" standalone="no"?>
<svg
   version="1.1"
   width="297.0022mm"
   height="210.0072mm"
   viewBox="0.0000 0.0000 297.0022 210.0072"
   id="svg30692"
   sodipodi:docname="circuito_calibrazione.svg"
   inkscape:version="1.2.2 (b0a8486541, 2022-12-01)"
   xmlns:inkscape="http://www.inkscape.org/namespaces/inkscape"
   xmlns:sodipodi="http://sodipodi.sourceforge.net/DTD/sodipodi-0.dtd"
   xmlns="http://www.w3.org/2000/svg"
   xmlns:svg="http://www.w3.org/2000/svg">
  <defs
     id="defs30696" />
  <sodipodi:namedview
     id="namedview30694"
     pagecolor="#ffffff"
     bordercolor="#000000"
     borderopacity="0.25"
     inkscape:showpageshadow="2"
     inkscape:pageopacity="0.0"
     inkscape:pagecheckerboard="0"
     inkscape:deskcolor="#d1d1d1"
     inkscape:document-units="mm"
     showgrid="false"
     showguides="false"
     inkscape:zoom="0.98900378"
     inkscape:cx="522.74826"
     inkscape:cy="169.36235"
     inkscape:window-width="1920"
     inkscape:window-height="1011"
     inkscape:window-x="0"
     inkscape:window-y="0"
     inkscape:window-maximized="1"
     inkscape:current-layer="svg30692" />
  <title
     id="title26920">SVG Image created as Circuiti.svg date 2025/11/30 12:24:39 </title>
  <desc
     id="desc26922">Image generated by Eeschema-SVG </desc>
  <g
     style="fill:#000000; fill-opacity:1.0000;stroke:#000000; stroke-opacity:1.0000; stroke-linecap:round; stroke-linejoin:round;"
     transform="translate(0 0) scale(1 1)"
     id="g26924" />
  <g
     style="fill:#000000; fill-opacity:0.0;  stroke:#000000; stroke-width:0.0000; stroke-opacity:1;  stroke-linecap:round; stroke-linejoin:round;"
     id="g26926" />
  <g
     style="fill:#000000; fill-opacity:0.0;  stroke:#000000; stroke-width:0.3000; stroke-opacity:1;  stroke-linecap:round; stroke-linejoin:round;"
     id="g29096">
    <text
       x="178.0022"
       y="180.7572"
       textLength="0.9000"
       font-size="2.0000"
       lengthAdjust="spacingAndGlyphs"
       text-anchor="start"
       opacity="0"
       id="text29090" />
    <g
       class="stroked-text"
       id="g29094">
      <desc
         id="desc29092" />
    </g>
  </g>
  <g
     style="fill:#000000; fill-opacity:0.0;  stroke:#000000; stroke-width:0.1524; stroke-opacity:1;  stroke-linecap:round; stroke-linejoin:round;"
     id="g29908">
    <text
       x="178.0022"
       y="177.7572"
       textLength="0.4572"
       font-size="2.0000"
       lengthAdjust="spacingAndGlyphs"
       text-anchor="start"
       opacity="0"
       id="text29098" />
    <g
       class="stroked-text"
       id="g29102">
      <desc
         id="desc29100" />
    </g>
    <text
       x="178.0022"
       y="174.7572"
       textLength="0.4572"
       font-size="2.0000"
       lengthAdjust="spacingAndGlyphs"
       text-anchor="start"
       opacity="0"
       id="text29104" />
    <g
       class="stroked-text"
       id="g29108">
      <desc
         id="desc29106" />
    </g>
    <text
       x="178.0022"
       y="171.7572"
       textLength="0.4572"
       font-size="2.0000"
       lengthAdjust="spacingAndGlyphs"
       text-anchor="start"
       opacity="0"
       id="text29110" />
    <g
       class="stroked-text"
       id="g29114">
      <desc
         id="desc29112" />
    </g>
    <text
       x="178.0022"
       y="168.7572"
       textLength="0.4572"
       font-size="2.0000"
       lengthAdjust="spacingAndGlyphs"
       text-anchor="start"
       opacity="0"
       id="text29116" />
    <g
       class="stroked-text"
       id="g29120">
      <desc
         id="desc29118" />
    </g>
    <text
       x="62.2300"
       y="258.3684"
       textLength="13.5683"
       font-size="1.6933"
       lengthAdjust="spacingAndGlyphs"
       text-anchor="start"
       opacity="0"
       id="text29128">circuito_diodo</text>
    <text
       x="62.2300"
       y="309.1946"
       textLength="28.4455"
       font-size="1.6933"
       lengthAdjust="spacingAndGlyphs"
       text-anchor="start"
       opacity="0"
       id="text29394">File: circuito_diodo.kicad_sch</text>
    <g
       id="g29906">
      <path
         style="fill:#000000; fill-opacity:0.0;  stroke:#000000; stroke-width:0.1524; stroke-opacity:1;  stroke-linecap:round; stroke-linejoin:round;fill:none"
         d="M 116.2050,66.6750 117.4750,66.6750 "
         id="path29898" />
      <path
         style="fill:#000000; fill-opacity:0.0;  stroke:#000000; stroke-width:0.1524; stroke-opacity:1;  stroke-linecap:round; stroke-linejoin:round;fill:none"
         d="M 116.7130,66.0400 116.9670,66.0400 "
         id="path29900" />
      <path
         style="fill:#000000; fill-opacity:0.0;  stroke:#000000; stroke-width:0.1524; stroke-opacity:1;  stroke-linecap:round; stroke-linejoin:round;fill:none"
         d="M 116.8400,67.3100 116.8400,68.5800 "
         id="path29902" />
      <path
         style="fill:#000000; fill-opacity:0.0;  stroke:#000000; stroke-width:0.1524; stroke-opacity:1;  stroke-linecap:round; stroke-linejoin:round;fill:none"
         d="M 118.1100,67.3100 115.5700,67.3100 "
         id="path29904" />
    </g>
  </g>
  <g
     style="fill:#000000; fill-opacity:0.0;  stroke:#000000; stroke-width:0.1524; stroke-opacity:1;  stroke-linecap:round; stroke-linejoin:round;"
     id="g29962">
    <g
       id="g29960">
      <path
         style="fill:#000000; fill-opacity:0.0;  stroke:#000000; stroke-width:0.1524; stroke-opacity:1;  stroke-linecap:round; stroke-linejoin:round;fill:none"
         d="M 89.4080,67.3100 90.1700,66.0400 "
         id="path29910" />
      <path
         style="fill:#000000; fill-opacity:0.0;  stroke:#000000; stroke-width:0.1524; stroke-opacity:1;  stroke-linecap:round; stroke-linejoin:round;fill:none"
         d="M 90.1700,68.5800 90.1700,66.0400 "
         id="path29912" />
      <path
         style="fill:#000000; fill-opacity:0.0;  stroke:#000000; stroke-width:0.1524; stroke-opacity:1;  stroke-linecap:round; stroke-linejoin:round;fill:none"
         d="M 90.1700,66.0400 90.9320,67.3100 "
         id="path29914" />
      <text
         x="90.1700"
         y="65.4050"
         textLength="4.0737"
         font-size="1.6933"
         lengthAdjust="spacingAndGlyphs"
         text-anchor="middle"
         opacity="0"
         id="text29916">+5V</text>
      <g
         class="stroked-text"
         id="g29958">
        <desc
           id="desc29918">+5V</desc>
        <path
           d="M88.5371 64.8657 L89.5048 64.8657 "
           id="path29920" />
        <path
           d="M89.0209 65.3495 L89.0209 64.3819 "
           id="path29922" />
        <path
           d="M90.7143 64.0795 L90.1095 64.0795 "
           id="path29924" />
        <path
           d="M90.1095 64.0795 L90.0491 64.6843 "
           id="path29926" />
        <path
           d="M90.0491 64.6843 L90.1095 64.6238 "
           id="path29928" />
        <path
           d="M90.1095 64.6238 L90.2305 64.5633 "
           id="path29930" />
        <path
           d="M90.2305 64.5633 L90.5329 64.5633 "
           id="path29932" />
        <path
           d="M90.5329 64.5633 L90.6538 64.6238 "
           id="path29934" />
        <path
           d="M90.6538 64.6238 L90.7143 64.6843 "
           id="path29936" />
        <path
           d="M90.7143 64.6843 L90.7748 64.8052 "
           id="path29938" />
        <path
           d="M90.7748 64.8052 L90.7748 65.1076 "
           id="path29940" />
        <path
           d="M90.7748 65.1076 L90.7143 65.2286 "
           id="path29942" />
        <path
           d="M90.7143 65.2286 L90.6538 65.2891 "
           id="path29944" />
        <path
           d="M90.6538 65.2891 L90.5329 65.3495 "
           id="path29946" />
        <path
           d="M90.5329 65.3495 L90.2305 65.3495 "
           id="path29948" />
        <path
           d="M90.2305 65.3495 L90.1095 65.2891 "
           id="path29950" />
        <path
           d="M90.1095 65.2891 L90.0491 65.2286 "
           id="path29952" />
        <path
           d="M91.1376 64.0795 L91.5609 65.3495 "
           id="path29954" />
        <path
           d="M91.5609 65.3495 L91.9843 64.0795 "
           id="path29956" />
      </g>
    </g>
  </g>
  <g
     style="fill:#000000; fill-opacity:0.0;  stroke:#000000; stroke-width:0.1524; stroke-opacity:1;  stroke-linecap:round; stroke-linejoin:round;"
     id="g30120">
    <g
       id="g29966">
      <path
         style="fill:#000000; fill-opacity:0.0;  stroke:#000000; stroke-width:0.1524; stroke-opacity:1;  stroke-linecap:round; stroke-linejoin:round;fill:none"
         d="M 99.0600,71.1200 99.0600,70.1040 "
         id="path29964" />
    </g>
    <g
       style="fill:#000000; fill-opacity:1.0000;  stroke:#000000; stroke-width:0.1524; stroke-opacity:1;  stroke-linecap:round; stroke-linejoin:round;"
       id="g29970">
      <path
         style="fill:#000000; fill-opacity:1.0000;  stroke:#000000; stroke-width:0.1524; stroke-opacity:1;  stroke-linecap:round; stroke-linejoin:round;fill-rule:evenodd;"
         d="M 99.0600,69.7230 99.5680,70.8660 98.5520,70.8660 Z"
         id="path29968" />
    </g>
    <g
       style="fill:#000000; fill-opacity:0.0;  stroke:#000000; stroke-width:0.2540; stroke-opacity:1;  stroke-linecap:round; stroke-linejoin:round;"
       id="g29974">
      <rect
         x="96.520000"
         y="67.564000"
         width="5.080000"
         height="2.032000"
         rx="0.000000"
         id="rect29972" />
    </g>
    <g
       style="fill:#000000; fill-opacity:0.0;  stroke:#000000; stroke-width:0.1524; stroke-opacity:1;  stroke-linecap:round; stroke-linejoin:round;"
       id="g30118">
      <path
         d="M101.6000 68.5800 L102.8700 68.5800 "
         id="path29976" />
      <text
         x="102.2350"
         y="68.3260"
         textLength="1.4127"
         font-size="1.6933"
         lengthAdjust="spacingAndGlyphs"
         text-anchor="middle"
         opacity="0"
         id="text29978">1</text>
      <g
         class="stroked-text"
         id="g29992">
        <desc
           id="desc29980">1</desc>
        <path
           d="M102.5979 68.1625 L101.8722 68.1625 "
           id="path29982" />
        <path
           d="M102.2350 68.1625 L102.2350 66.8925 "
           id="path29984" />
        <path
           d="M102.2350 66.8925 L102.1141 67.0740 "
           id="path29986" />
        <path
           d="M102.1141 67.0740 L101.9931 67.1949 "
           id="path29988" />
        <path
           d="M101.9931 67.1949 L101.8722 67.2554 "
           id="path29990" />
      </g>
      <path
         d="M99.0600 71.1200 L99.0600 72.3900 "
         id="path29994" />
      <g
         transform="rotate(-90.000000 98.8060 71.7550)"
         id="g29998">
        <text
           x="98.8060"
           y="71.7550"
           textLength="1.4127"
           font-size="1.6933"
           lengthAdjust="spacingAndGlyphs"
           text-anchor="middle"
           opacity="0"
           id="text29996">2</text>
      </g>
      <g
         class="stroked-text"
         id="g30022">
        <desc
           id="desc30000">2</desc>
        <path
           d="M97.4935 72.1177 L97.4330 72.0573 "
           id="path30002" />
        <path
           d="M97.4330 72.0573 L97.3725 71.9363 "
           id="path30004" />
        <path
           d="M97.3725 71.9363 L97.3725 71.6339 "
           id="path30006" />
        <path
           d="M97.3725 71.6339 L97.4330 71.5130 "
           id="path30008" />
        <path
           d="M97.4330 71.5130 L97.4935 71.4525 "
           id="path30010" />
        <path
           d="M97.4935 71.4525 L97.6144 71.3920 "
           id="path30012" />
        <path
           d="M97.6144 71.3920 L97.7354 71.3920 "
           id="path30014" />
        <path
           d="M97.7354 71.3920 L97.9168 71.4525 "
           id="path30016" />
        <path
           d="M97.9168 71.4525 L98.6425 72.1782 "
           id="path30018" />
        <path
           d="M98.6425 72.1782 L98.6425 71.3920 "
           id="path30020" />
      </g>
      <path
         d="M96.5200 68.5800 L95.2500 68.5800 "
         id="path30024" />
      <text
         x="95.8850"
         y="68.3260"
         textLength="1.4127"
         font-size="1.6933"
         lengthAdjust="spacingAndGlyphs"
         text-anchor="middle"
         opacity="0"
         id="text30026">3</text>
      <g
         class="stroked-text"
         id="g30056">
        <desc
           id="desc30028">3</desc>
        <path
           d="M95.4617 66.8925 L96.2479 66.8925 "
           id="path30030" />
        <path
           d="M96.2479 66.8925 L95.8245 67.3763 "
           id="path30032" />
        <path
           d="M95.8245 67.3763 L96.0060 67.3763 "
           id="path30034" />
        <path
           d="M96.0060 67.3763 L96.1269 67.4368 "
           id="path30036" />
        <path
           d="M96.1269 67.4368 L96.1874 67.4973 "
           id="path30038" />
        <path
           d="M96.1874 67.4973 L96.2479 67.6182 "
           id="path30040" />
        <path
           d="M96.2479 67.6182 L96.2479 67.9206 "
           id="path30042" />
        <path
           d="M96.2479 67.9206 L96.1874 68.0416 "
           id="path30044" />
        <path
           d="M96.1874 68.0416 L96.1269 68.1021 "
           id="path30046" />
        <path
           d="M96.1269 68.1021 L96.0060 68.1625 "
           id="path30048" />
        <path
           d="M96.0060 68.1625 L95.6431 68.1625 "
           id="path30050" />
        <path
           d="M95.6431 68.1625 L95.5222 68.1021 "
           id="path30052" />
        <path
           d="M95.5222 68.1021 L95.4617 68.0416 "
           id="path30054" />
      </g>
      <text
         x="99.0600"
         y="65.4050"
         textLength="4.8598"
         font-size="1.6933"
         lengthAdjust="spacingAndGlyphs"
         text-anchor="middle"
         opacity="0"
         id="text30058">1 kΩ</text>
      <g
         class="stroked-text"
         id="g30116">
        <desc
           id="desc30060">1 kΩ</desc>
        <path
           d="M97.6993 65.3495 L96.9736 65.3495 "
           id="path30062" />
        <path
           d="M97.3364 65.3495 L97.3364 64.0795 "
           id="path30064" />
        <path
           d="M97.3364 64.0795 L97.2155 64.2610 "
           id="path30066" />
        <path
           d="M97.2155 64.2610 L97.0945 64.3819 "
           id="path30068" />
        <path
           d="M97.0945 64.3819 L96.9736 64.4424 "
           id="path30070" />
        <path
           d="M99.2111 65.3495 L99.2111 64.0795 "
           id="path30072" />
        <path
           d="M99.3321 64.8657 L99.6949 65.3495 "
           id="path30074" />
        <path
           d="M99.6949 64.5029 L99.2111 64.9867 "
           id="path30076" />
        <path
           d="M100.1788 65.3495 L100.4811 65.3495 "
           id="path30078" />
        <path
           d="M100.4811 65.3495 L100.4811 65.1076 "
           id="path30080" />
        <path
           d="M100.4811 65.1076 L100.3602 65.0471 "
           id="path30082" />
        <path
           d="M100.3602 65.0471 L100.2392 64.9262 "
           id="path30084" />
        <path
           d="M100.2392 64.9262 L100.1788 64.7448 "
           id="path30086" />
        <path
           d="M100.1788 64.7448 L100.1788 64.4424 "
           id="path30088" />
        <path
           d="M100.1788 64.4424 L100.2392 64.2610 "
           id="path30090" />
        <path
           d="M100.2392 64.2610 L100.3602 64.1400 "
           id="path30092" />
        <path
           d="M100.3602 64.1400 L100.5416 64.0795 "
           id="path30094" />
        <path
           d="M100.5416 64.0795 L100.7835 64.0795 "
           id="path30096" />
        <path
           d="M100.7835 64.0795 L100.9649 64.1400 "
           id="path30098" />
        <path
           d="M100.9649 64.1400 L101.0859 64.2610 "
           id="path30100" />
        <path
           d="M101.0859 64.2610 L101.1464 64.4424 "
           id="path30102" />
        <path
           d="M101.1464 64.4424 L101.1464 64.7448 "
           id="path30104" />
        <path
           d="M101.1464 64.7448 L101.0859 64.9262 "
           id="path30106" />
        <path
           d="M101.0859 64.9262 L100.9649 65.0471 "
           id="path30108" />
        <path
           d="M100.9649 65.0471 L100.8440 65.1076 "
           id="path30110" />
        <path
           d="M100.8440 65.1076 L100.8440 65.3495 "
           id="path30112" />
        <path
           d="M100.8440 65.3495 L101.1464 65.3495 "
           id="path30114" />
      </g>
    </g>
  </g>
  <g
     style="fill:#000000; fill-opacity:0.0;  stroke:#000000; stroke-width:0.1524; stroke-opacity:1;  stroke-linecap:round; stroke-linejoin:round;"
     id="g30460">
    <g
       id="g30122" />
    <g
       style="fill:#000000; fill-opacity:0.0;  stroke:#000000; stroke-width:0.2540; stroke-opacity:1;  stroke-linecap:round; stroke-linejoin:round;"
       id="g30142">
      <path
         d="M97.0280 80.7720 A0.3810 0.3810 0.0 0 0 96.2660 80.7720"
         id="path30124" />
      <path
         d="M95.2500 81.7880 A0.3810 0.3810 0.0 0 0 96.0120 81.7880"
         id="path30126" />
      <path
         style="fill:#000000; fill-opacity:0.0;  stroke:#000000; stroke-width:0.2540; stroke-opacity:1;  stroke-linecap:round; stroke-linejoin:round;fill:none"
         d="M 97.0280,80.7720 97.1550,81.2800 "
         id="path30128" />
      <path
         style="fill:#000000; fill-opacity:0.0;  stroke:#000000; stroke-width:0.2540; stroke-opacity:1;  stroke-linecap:round; stroke-linejoin:round;fill:none"
         d="M 96.2660,80.7720 96.0120,81.7880 "
         id="path30130" />
      <path
         style="fill:#000000; fill-opacity:0.0;  stroke:#000000; stroke-width:0.2540; stroke-opacity:1;  stroke-linecap:round; stroke-linejoin:round;fill:none"
         d="M 95.2500,81.7880 94.9960,80.7720 "
         id="path30132" />
      <path
         style="fill:#000000; fill-opacity:0.0;  stroke:#000000; stroke-width:0.2540; stroke-opacity:1;  stroke-linecap:round; stroke-linejoin:round;fill:none"
         d="M 94.2340,80.7720 93.9800,81.7880 "
         id="path30134" />
      <path
         style="fill:#000000; fill-opacity:0.0;  stroke:#000000; stroke-width:0.2540; stroke-opacity:1;  stroke-linecap:round; stroke-linejoin:round;fill:none"
         d="M 93.2180,81.7880 93.0910,81.2800 "
         id="path30136" />
      <path
         d="M94.9960 80.7720 A0.3810 0.3810 0.0 0 0 94.2340 80.7720"
         id="path30138" />
      <path
         d="M93.2180 81.7880 A0.3810 0.3810 0.0 0 0 93.9800 81.7880"
         id="path30140" />
    </g>
    <g
       style="fill:#000000; fill-opacity:0.0;  stroke:#000000; stroke-width:0.1524; stroke-opacity:1;  stroke-linecap:round; stroke-linejoin:round;"
       id="g30148">
      <path
         style="fill:#000000; fill-opacity:0.0;  stroke:#000000; stroke-width:0.1524; stroke-opacity:1;  stroke-linecap:round; stroke-linejoin:round;fill:none"
         d="M 94.9960,77.4700 94.4880,77.4700 "
         id="path30144" />
      <path
         style="fill:#000000; fill-opacity:0.0;  stroke:#000000; stroke-width:0.1524; stroke-opacity:1;  stroke-linecap:round; stroke-linejoin:round;fill:none"
         d="M 94.7420,77.2160 94.7420,77.7240 "
         id="path30146" />
    </g>
    <g
       style="fill:#000000; fill-opacity:0.0;  stroke:#000000; stroke-width:0.2540; stroke-opacity:1;  stroke-linecap:round; stroke-linejoin:round;"
       id="g30152">
      <circle
         cx="95.2500"
         cy="81.2800"
         r="2.5400"
         id="circle30150" />
    </g>
    <g
       style="fill:#000000; fill-opacity:0.0;  stroke:#000000; stroke-width:0.1524; stroke-opacity:1;  stroke-linecap:round; stroke-linejoin:round;"
       id="g30458">
      <path
         d="M95.2500 83.8200 L95.2500 86.3600 "
         id="path30154" />
      <path
         d="M95.2500 78.7400 L95.2500 76.2000 "
         id="path30156" />
      <g
         transform="rotate(-90.000000 90.1700 81.1688)"
         id="g30160">
        <text
           x="90.1700"
           y="81.8038"
           textLength="12.9031"
           font-size="1.6933"
           lengthAdjust="spacingAndGlyphs"
           text-anchor="middle"
           opacity="0"
           id="text30158">Oscilloscopio</text>
      </g>
      <g
         class="stroked-text"
         id="g30456">
        <desc
           id="desc30162">Oscilloscopio</desc>
        <path
           d="M89.4795 86.9744 L89.4795 86.7325 "
           id="path30164" />
        <path
           d="M89.4795 86.7325 L89.5400 86.6115 "
           id="path30166" />
        <path
           d="M89.5400 86.6115 L89.6610 86.4906 "
           id="path30168" />
        <path
           d="M89.6610 86.4906 L89.9029 86.4301 "
           id="path30170" />
        <path
           d="M89.9029 86.4301 L90.3262 86.4301 "
           id="path30172" />
        <path
           d="M90.3262 86.4301 L90.5681 86.4906 "
           id="path30174" />
        <path
           d="M90.5681 86.4906 L90.6891 86.6115 "
           id="path30176" />
        <path
           d="M90.6891 86.6115 L90.7495 86.7325 "
           id="path30178" />
        <path
           d="M90.7495 86.7325 L90.7495 86.9744 "
           id="path30180" />
        <path
           d="M90.7495 86.9744 L90.6891 87.0953 "
           id="path30182" />
        <path
           d="M90.6891 87.0953 L90.5681 87.2163 "
           id="path30184" />
        <path
           d="M90.5681 87.2163 L90.3262 87.2767 "
           id="path30186" />
        <path
           d="M90.3262 87.2767 L89.9029 87.2767 "
           id="path30188" />
        <path
           d="M89.9029 87.2767 L89.6610 87.2163 "
           id="path30190" />
        <path
           d="M89.6610 87.2163 L89.5400 87.0953 "
           id="path30192" />
        <path
           d="M89.5400 87.0953 L89.4795 86.9744 "
           id="path30194" />
        <path
           d="M90.6891 85.9462 L90.7495 85.8253 "
           id="path30196" />
        <path
           d="M90.7495 85.8253 L90.7495 85.5834 "
           id="path30198" />
        <path
           d="M90.7495 85.5834 L90.6891 85.4624 "
           id="path30200" />
        <path
           d="M90.6891 85.4624 L90.5681 85.4020 "
           id="path30202" />
        <path
           d="M90.5681 85.4020 L90.5076 85.4020 "
           id="path30204" />
        <path
           d="M90.5076 85.4020 L90.3867 85.4624 "
           id="path30206" />
        <path
           d="M90.3867 85.4624 L90.3262 85.5834 "
           id="path30208" />
        <path
           d="M90.3262 85.5834 L90.3262 85.7648 "
           id="path30210" />
        <path
           d="M90.3262 85.7648 L90.2657 85.8858 "
           id="path30212" />
        <path
           d="M90.2657 85.8858 L90.1448 85.9462 "
           id="path30214" />
        <path
           d="M90.1448 85.9462 L90.0843 85.9462 "
           id="path30216" />
        <path
           d="M90.0843 85.9462 L89.9633 85.8858 "
           id="path30218" />
        <path
           d="M89.9633 85.8858 L89.9029 85.7648 "
           id="path30220" />
        <path
           d="M89.9029 85.7648 L89.9029 85.5834 "
           id="path30222" />
        <path
           d="M89.9029 85.5834 L89.9633 85.4624 "
           id="path30224" />
        <path
           d="M90.6891 84.3134 L90.7495 84.4343 "
           id="path30226" />
        <path
           d="M90.7495 84.4343 L90.7495 84.6762 "
           id="path30228" />
        <path
           d="M90.7495 84.6762 L90.6891 84.7972 "
           id="path30230" />
        <path
           d="M90.6891 84.7972 L90.6286 84.8577 "
           id="path30232" />
        <path
           d="M90.6286 84.8577 L90.5076 84.9181 "
           id="path30234" />
        <path
           d="M90.5076 84.9181 L90.1448 84.9181 "
           id="path30236" />
        <path
           d="M90.1448 84.9181 L90.0238 84.8577 "
           id="path30238" />
        <path
           d="M90.0238 84.8577 L89.9633 84.7972 "
           id="path30240" />
        <path
           d="M89.9633 84.7972 L89.9029 84.6762 "
           id="path30242" />
        <path
           d="M89.9029 84.6762 L89.9029 84.4343 "
           id="path30244" />
        <path
           d="M89.9029 84.4343 L89.9633 84.3134 "
           id="path30246" />
        <path
           d="M90.7495 83.7691 L89.9029 83.7691 "
           id="path30248" />
        <path
           d="M89.4795 83.7691 L89.5400 83.8295 "
           id="path30250" />
        <path
           d="M89.5400 83.8295 L89.6005 83.7691 "
           id="path30252" />
        <path
           d="M89.6005 83.7691 L89.5400 83.7086 "
           id="path30254" />
        <path
           d="M89.5400 83.7086 L89.4795 83.7691 "
           id="path30256" />
        <path
           d="M89.4795 83.7691 L89.6005 83.7691 "
           id="path30258" />
        <path
           d="M90.7495 82.9828 L90.6891 83.1038 "
           id="path30260" />
        <path
           d="M90.6891 83.1038 L90.5681 83.1643 "
           id="path30262" />
        <path
           d="M90.5681 83.1643 L89.4795 83.1643 "
           id="path30264" />
        <path
           d="M90.7495 82.3176 L90.6891 82.4386 "
           id="path30266" />
        <path
           d="M90.6891 82.4386 L90.5681 82.4991 "
           id="path30268" />
        <path
           d="M90.5681 82.4991 L89.4795 82.4991 "
           id="path30270" />
        <path
           d="M90.7495 81.6524 L90.6891 81.7734 "
           id="path30272" />
        <path
           d="M90.6891 81.7734 L90.6286 81.8339 "
           id="path30274" />
        <path
           d="M90.6286 81.8339 L90.5076 81.8943 "
           id="path30276" />
        <path
           d="M90.5076 81.8943 L90.1448 81.8943 "
           id="path30278" />
        <path
           d="M90.1448 81.8943 L90.0238 81.8339 "
           id="path30280" />
        <path
           d="M90.0238 81.8339 L89.9633 81.7734 "
           id="path30282" />
        <path
           d="M89.9633 81.7734 L89.9029 81.6524 "
           id="path30284" />
        <path
           d="M89.9029 81.6524 L89.9029 81.4710 "
           id="path30286" />
        <path
           d="M89.9029 81.4710 L89.9633 81.3501 "
           id="path30288" />
        <path
           d="M89.9633 81.3501 L90.0238 81.2896 "
           id="path30290" />
        <path
           d="M90.0238 81.2896 L90.1448 81.2291 "
           id="path30292" />
        <path
           d="M90.1448 81.2291 L90.5076 81.2291 "
           id="path30294" />
        <path
           d="M90.5076 81.2291 L90.6286 81.2896 "
           id="path30296" />
        <path
           d="M90.6286 81.2896 L90.6891 81.3501 "
           id="path30298" />
        <path
           d="M90.6891 81.3501 L90.7495 81.4710 "
           id="path30300" />
        <path
           d="M90.7495 81.4710 L90.7495 81.6524 "
           id="path30302" />
        <path
           d="M90.6891 80.7453 L90.7495 80.6244 "
           id="path30304" />
        <path
           d="M90.7495 80.6244 L90.7495 80.3825 "
           id="path30306" />
        <path
           d="M90.7495 80.3825 L90.6891 80.2615 "
           id="path30308" />
        <path
           d="M90.6891 80.2615 L90.5681 80.2011 "
           id="path30310" />
        <path
           d="M90.5681 80.2011 L90.5076 80.2011 "
           id="path30312" />
        <path
           d="M90.5076 80.2011 L90.3867 80.2615 "
           id="path30314" />
        <path
           d="M90.3867 80.2615 L90.3262 80.3825 "
           id="path30316" />
        <path
           d="M90.3262 80.3825 L90.3262 80.5639 "
           id="path30318" />
        <path
           d="M90.3262 80.5639 L90.2657 80.6849 "
           id="path30320" />
        <path
           d="M90.2657 80.6849 L90.1448 80.7453 "
           id="path30322" />
        <path
           d="M90.1448 80.7453 L90.0843 80.7453 "
           id="path30324" />
        <path
           d="M90.0843 80.7453 L89.9633 80.6849 "
           id="path30326" />
        <path
           d="M89.9633 80.6849 L89.9029 80.5639 "
           id="path30328" />
        <path
           d="M89.9029 80.5639 L89.9029 80.3825 "
           id="path30330" />
        <path
           d="M89.9029 80.3825 L89.9633 80.2615 "
           id="path30332" />
        <path
           d="M90.6891 79.1125 L90.7495 79.2334 "
           id="path30334" />
        <path
           d="M90.7495 79.2334 L90.7495 79.4753 "
           id="path30336" />
        <path
           d="M90.7495 79.4753 L90.6891 79.5963 "
           id="path30338" />
        <path
           d="M90.6891 79.5963 L90.6286 79.6568 "
           id="path30340" />
        <path
           d="M90.6286 79.6568 L90.5076 79.7172 "
           id="path30342" />
        <path
           d="M90.5076 79.7172 L90.1448 79.7172 "
           id="path30344" />
        <path
           d="M90.1448 79.7172 L90.0238 79.6568 "
           id="path30346" />
        <path
           d="M90.0238 79.6568 L89.9633 79.5963 "
           id="path30348" />
        <path
           d="M89.9633 79.5963 L89.9029 79.4753 "
           id="path30350" />
        <path
           d="M89.9029 79.4753 L89.9029 79.2334 "
           id="path30352" />
        <path
           d="M89.9029 79.2334 L89.9633 79.1125 "
           id="path30354" />
        <path
           d="M90.7495 78.3867 L90.6891 78.5077 "
           id="path30356" />
        <path
           d="M90.6891 78.5077 L90.6286 78.5682 "
           id="path30358" />
        <path
           d="M90.6286 78.5682 L90.5076 78.6286 "
           id="path30360" />
        <path
           d="M90.5076 78.6286 L90.1448 78.6286 "
           id="path30362" />
        <path
           d="M90.1448 78.6286 L90.0238 78.5682 "
           id="path30364" />
        <path
           d="M90.0238 78.5682 L89.9633 78.5077 "
           id="path30366" />
        <path
           d="M89.9633 78.5077 L89.9029 78.3867 "
           id="path30368" />
        <path
           d="M89.9029 78.3867 L89.9029 78.2053 "
           id="path30370" />
        <path
           d="M89.9029 78.2053 L89.9633 78.0844 "
           id="path30372" />
        <path
           d="M89.9633 78.0844 L90.0238 78.0239 "
           id="path30374" />
        <path
           d="M90.0238 78.0239 L90.1448 77.9634 "
           id="path30376" />
        <path
           d="M90.1448 77.9634 L90.5076 77.9634 "
           id="path30378" />
        <path
           d="M90.5076 77.9634 L90.6286 78.0239 "
           id="path30380" />
        <path
           d="M90.6286 78.0239 L90.6891 78.0844 "
           id="path30382" />
        <path
           d="M90.6891 78.0844 L90.7495 78.2053 "
           id="path30384" />
        <path
           d="M90.7495 78.2053 L90.7495 78.3867 "
           id="path30386" />
        <path
           d="M89.9029 77.4192 L91.1729 77.4192 "
           id="path30388" />
        <path
           d="M89.9633 77.4192 L89.9029 77.2982 "
           id="path30390" />
        <path
           d="M89.9029 77.2982 L89.9029 77.0563 "
           id="path30392" />
        <path
           d="M89.9029 77.0563 L89.9633 76.9354 "
           id="path30394" />
        <path
           d="M89.9633 76.9354 L90.0238 76.8749 "
           id="path30396" />
        <path
           d="M90.0238 76.8749 L90.1448 76.8144 "
           id="path30398" />
        <path
           d="M90.1448 76.8144 L90.5076 76.8144 "
           id="path30400" />
        <path
           d="M90.5076 76.8144 L90.6286 76.8749 "
           id="path30402" />
        <path
           d="M90.6286 76.8749 L90.6891 76.9354 "
           id="path30404" />
        <path
           d="M90.6891 76.9354 L90.7495 77.0563 "
           id="path30406" />
        <path
           d="M90.7495 77.0563 L90.7495 77.2982 "
           id="path30408" />
        <path
           d="M90.7495 77.2982 L90.6891 77.4192 "
           id="path30410" />
        <path
           d="M90.7495 76.2702 L89.9029 76.2702 "
           id="path30412" />
        <path
           d="M89.4795 76.2702 L89.5400 76.3306 "
           id="path30414" />
        <path
           d="M89.5400 76.3306 L89.6005 76.2702 "
           id="path30416" />
        <path
           d="M89.6005 76.2702 L89.5400 76.2097 "
           id="path30418" />
        <path
           d="M89.5400 76.2097 L89.4795 76.2702 "
           id="path30420" />
        <path
           d="M89.4795 76.2702 L89.6005 76.2702 "
           id="path30422" />
        <path
           d="M90.7495 75.4839 L90.6891 75.6049 "
           id="path30424" />
        <path
           d="M90.6891 75.6049 L90.6286 75.6654 "
           id="path30426" />
        <path
           d="M90.6286 75.6654 L90.5076 75.7258 "
           id="path30428" />
        <path
           d="M90.5076 75.7258 L90.1448 75.7258 "
           id="path30430" />
        <path
           d="M90.1448 75.7258 L90.0238 75.6654 "
           id="path30432" />
        <path
           d="M90.0238 75.6654 L89.9633 75.6049 "
           id="path30434" />
        <path
           d="M89.9633 75.6049 L89.9029 75.4839 "
           id="path30436" />
        <path
           d="M89.9029 75.4839 L89.9029 75.3025 "
           id="path30438" />
        <path
           d="M89.9029 75.3025 L89.9633 75.1816 "
           id="path30440" />
        <path
           d="M89.9633 75.1816 L90.0238 75.1211 "
           id="path30442" />
        <path
           d="M90.0238 75.1211 L90.1448 75.0606 "
           id="path30444" />
        <path
           d="M90.1448 75.0606 L90.5076 75.0606 "
           id="path30446" />
        <path
           d="M90.5076 75.0606 L90.6286 75.1211 "
           id="path30448" />
        <path
           d="M90.6286 75.1211 L90.6891 75.1816 "
           id="path30450" />
        <path
           d="M90.6891 75.1816 L90.7495 75.3025 "
           id="path30452" />
        <path
           d="M90.7495 75.3025 L90.7495 75.4839 "
           id="path30454" />
      </g>
    </g>
  </g>
  <g
     style="fill:#000000; fill-opacity:0.0;  stroke:#000000; stroke-width:0.1524; stroke-opacity:1;  stroke-linecap:round; stroke-linejoin:round;"
     id="g30656">
    <g
       id="g30472">
      <path
         style="fill:#000000; fill-opacity:0.0;  stroke:#000000; stroke-width:0.1524; stroke-opacity:1;  stroke-linecap:round; stroke-linejoin:round;fill:none"
         d="M 99.6950,84.4550 100.9650,83.1850 "
         id="path30462" />
      <path
         style="fill:#000000; fill-opacity:0.0;  stroke:#000000; stroke-width:0.1524; stroke-opacity:1;  stroke-linecap:round; stroke-linejoin:round;fill:none"
         d="M 104.7750,79.3750 106.0450,78.1050 "
         id="path30464" />
      <path
         style="fill:#000000; fill-opacity:0.0;  stroke:#000000; stroke-width:0.1524; stroke-opacity:1;  stroke-linecap:round; stroke-linejoin:round;fill:none"
         d="M 104.7750,78.1050 106.0450,78.1050 106.0450,79.3750 "
         id="path30466" />
      <path
         style="fill:#000000; fill-opacity:0.0;  stroke:#000000; stroke-width:0.1524; stroke-opacity:1;  stroke-linecap:round; stroke-linejoin:round;fill:none"
         d="M 103.1240,77.4700 103.6320,77.4700 "
         id="path30468" />
      <path
         style="fill:#000000; fill-opacity:0.0;  stroke:#000000; stroke-width:0.1524; stroke-opacity:1;  stroke-linecap:round; stroke-linejoin:round;fill:none"
         d="M 103.3780,77.2160 103.3780,77.7240 "
         id="path30470" />
    </g>
    <g
       style="fill:#000000; fill-opacity:0.0;  stroke:#000000; stroke-width:0.2540; stroke-opacity:1;  stroke-linecap:round; stroke-linejoin:round;"
       id="g30476">
      <circle
         cx="102.8700"
         cy="81.2800"
         r="2.5400"
         id="circle30474" />
    </g>
    <g
       style="fill:#000000; fill-opacity:0.0;  stroke:#000000; stroke-width:0.3175; stroke-opacity:1;  stroke-linecap:round; stroke-linejoin:round;"
       id="g30488">
      <text
         x="102.8700"
         y="82.5501"
         textLength="2.6217"
         font-size="3.3866"
         lengthAdjust="spacingAndGlyphs"
         text-anchor="middle"
         opacity="0"
         id="text30478">V</text>
      <g
         class="stroked-text"
         id="g30486">
        <desc
           id="desc30480">V</desc>
        <path
           d="M102.0234 79.8985 L102.8700 82.4385 "
           id="path30482" />
        <path
           d="M102.8700 82.4385 L103.7167 79.8985 "
           id="path30484" />
      </g>
    </g>
    <g
       style="fill:#000000; fill-opacity:0.0;  stroke:#000000; stroke-width:0.1524; stroke-opacity:1;  stroke-linecap:round; stroke-linejoin:round;"
       id="g30654">
      <path
         d="M102.8700 83.8200 L102.8700 86.3600 "
         id="path30490" />
      <path
         d="M102.8700 78.7400 L102.8700 76.2000 "
         id="path30492" />
      <text
         x="111.3268"
         y="81.9150"
         textLength="9.2745"
         font-size="1.6933"
         lengthAdjust="spacingAndGlyphs"
         text-anchor="middle"
         opacity="0"
         id="text30494">Voltmetro</text>
      <g
         class="stroked-text"
         id="g30652">
        <desc
           id="desc30496">Voltmetro</desc>
        <path
           d="M106.9121 80.5895 L107.3354 81.8595 "
           id="path30498" />
        <path
           d="M107.3354 81.8595 L107.7588 80.5895 "
           id="path30500" />
        <path
           d="M108.3636 81.8595 L108.2426 81.7991 "
           id="path30502" />
        <path
           d="M108.2426 81.7991 L108.1821 81.7386 "
           id="path30504" />
        <path
           d="M108.1821 81.7386 L108.1217 81.6176 "
           id="path30506" />
        <path
           d="M108.1217 81.6176 L108.1217 81.2548 "
           id="path30508" />
        <path
           d="M108.1217 81.2548 L108.1821 81.1338 "
           id="path30510" />
        <path
           d="M108.1821 81.1338 L108.2426 81.0733 "
           id="path30512" />
        <path
           d="M108.2426 81.0733 L108.3636 81.0129 "
           id="path30514" />
        <path
           d="M108.3636 81.0129 L108.5450 81.0129 "
           id="path30516" />
        <path
           d="M108.5450 81.0129 L108.6659 81.0733 "
           id="path30518" />
        <path
           d="M108.6659 81.0733 L108.7264 81.1338 "
           id="path30520" />
        <path
           d="M108.7264 81.1338 L108.7869 81.2548 "
           id="path30522" />
        <path
           d="M108.7869 81.2548 L108.7869 81.6176 "
           id="path30524" />
        <path
           d="M108.7869 81.6176 L108.7264 81.7386 "
           id="path30526" />
        <path
           d="M108.7264 81.7386 L108.6659 81.7991 "
           id="path30528" />
        <path
           d="M108.6659 81.7991 L108.5450 81.8595 "
           id="path30530" />
        <path
           d="M108.5450 81.8595 L108.3636 81.8595 "
           id="path30532" />
        <path
           d="M109.5126 81.8595 L109.3916 81.7991 "
           id="path30534" />
        <path
           d="M109.3916 81.7991 L109.3311 81.6781 "
           id="path30536" />
        <path
           d="M109.3311 81.6781 L109.3311 80.5895 "
           id="path30538" />
        <path
           d="M109.8149 81.0129 L110.2987 81.0129 "
           id="path30540" />
        <path
           d="M109.9963 80.5895 L109.9963 81.6781 "
           id="path30542" />
        <path
           d="M109.9963 81.6781 L110.0568 81.7991 "
           id="path30544" />
        <path
           d="M110.0568 81.7991 L110.1778 81.8595 "
           id="path30546" />
        <path
           d="M110.1778 81.8595 L110.2987 81.8595 "
           id="path30548" />
        <path
           d="M110.7220 81.8595 L110.7220 81.0129 "
           id="path30550" />
        <path
           d="M110.7220 81.1338 L110.7825 81.0733 "
           id="path30552" />
        <path
           d="M110.7825 81.0733 L110.9035 81.0129 "
           id="path30554" />
        <path
           d="M110.9035 81.0129 L111.0849 81.0129 "
           id="path30556" />
        <path
           d="M111.0849 81.0129 L111.2058 81.0733 "
           id="path30558" />
        <path
           d="M111.2058 81.0733 L111.2663 81.1943 "
           id="path30560" />
        <path
           d="M111.2663 81.1943 L111.2663 81.8595 "
           id="path30562" />
        <path
           d="M111.2663 81.1943 L111.3268 81.0733 "
           id="path30564" />
        <path
           d="M111.3268 81.0733 L111.4477 81.0129 "
           id="path30566" />
        <path
           d="M111.4477 81.0129 L111.6292 81.0129 "
           id="path30568" />
        <path
           d="M111.6292 81.0129 L111.7501 81.0733 "
           id="path30570" />
        <path
           d="M111.7501 81.0733 L111.8106 81.1943 "
           id="path30572" />
        <path
           d="M111.8106 81.1943 L111.8106 81.8595 "
           id="path30574" />
        <path
           d="M112.8991 81.7991 L112.7782 81.8595 "
           id="path30576" />
        <path
           d="M112.7782 81.8595 L112.5363 81.8595 "
           id="path30578" />
        <path
           d="M112.5363 81.8595 L112.4153 81.7991 "
           id="path30580" />
        <path
           d="M112.4153 81.7991 L112.3549 81.6781 "
           id="path30582" />
        <path
           d="M112.3549 81.6781 L112.3549 81.1943 "
           id="path30584" />
        <path
           d="M112.3549 81.1943 L112.4153 81.0733 "
           id="path30586" />
        <path
           d="M112.4153 81.0733 L112.5363 81.0129 "
           id="path30588" />
        <path
           d="M112.5363 81.0129 L112.7782 81.0129 "
           id="path30590" />
        <path
           d="M112.7782 81.0129 L112.8991 81.0733 "
           id="path30592" />
        <path
           d="M112.8991 81.0733 L112.9596 81.1943 "
           id="path30594" />
        <path
           d="M112.9596 81.1943 L112.9596 81.3152 "
           id="path30596" />
        <path
           d="M112.9596 81.3152 L112.3549 81.4362 "
           id="path30598" />
        <path
           d="M113.3225 81.0129 L113.8063 81.0129 "
           id="path30600" />
        <path
           d="M113.5039 80.5895 L113.5039 81.6781 "
           id="path30602" />
        <path
           d="M113.5039 81.6781 L113.5644 81.7991 "
           id="path30604" />
        <path
           d="M113.5644 81.7991 L113.6854 81.8595 "
           id="path30606" />
        <path
           d="M113.6854 81.8595 L113.8063 81.8595 "
           id="path30608" />
        <path
           d="M114.2296 81.8595 L114.2296 81.0129 "
           id="path30610" />
        <path
           d="M114.2296 81.2548 L114.2901 81.1338 "
           id="path30612" />
        <path
           d="M114.2901 81.1338 L114.3506 81.0733 "
           id="path30614" />
        <path
           d="M114.3506 81.0733 L114.4715 81.0129 "
           id="path30616" />
        <path
           d="M114.4715 81.0129 L114.5925 81.0129 "
           id="path30618" />
        <path
           d="M115.1973 81.8595 L115.0763 81.7991 "
           id="path30620" />
        <path
           d="M115.0763 81.7991 L115.0158 81.7386 "
           id="path30622" />
        <path
           d="M115.0158 81.7386 L114.9554 81.6176 "
           id="path30624" />
        <path
           d="M114.9554 81.6176 L114.9554 81.2548 "
           id="path30626" />
        <path
           d="M114.9554 81.2548 L115.0158 81.1338 "
           id="path30628" />
        <path
           d="M115.0158 81.1338 L115.0763 81.0733 "
           id="path30630" />
        <path
           d="M115.0763 81.0733 L115.1973 81.0129 "
           id="path30632" />
        <path
           d="M115.1973 81.0129 L115.3787 81.0129 "
           id="path30634" />
        <path
           d="M115.3787 81.0129 L115.4996 81.0733 "
           id="path30636" />
        <path
           d="M115.4996 81.0733 L115.5601 81.1338 "
           id="path30638" />
        <path
           d="M115.5601 81.1338 L115.6206 81.2548 "
           id="path30640" />
        <path
           d="M115.6206 81.2548 L115.6206 81.6176 "
           id="path30642" />
        <path
           d="M115.6206 81.6176 L115.5601 81.7386 "
           id="path30644" />
        <path
           d="M115.5601 81.7386 L115.4996 81.7991 "
           id="path30646" />
        <path
           d="M115.4996 81.7991 L115.3787 81.8595 "
           id="path30648" />
        <path
           d="M115.3787 81.8595 L115.1973 81.8595 "
           id="path30650" />
      </g>
    </g>
  </g>
  <g
     style="fill:#000000; fill-opacity:0.0;  stroke:#000000; stroke-width:0.1524; stroke-opacity:1;  stroke-linecap:round; stroke-linejoin:round;"
     id="g30682">
    <path
       d="M102.8700 76.2000 L102.8700 73.6600 "
       id="path30658" />
    <path
       d="M99.0600 73.6600 L102.8700 73.6600 "
       id="path30660" />
    <path
       d="M95.2500 73.6600 L99.0600 73.6600 "
       id="path30662" />
    <path
       d="M95.2500 90.1700 L95.2500 86.3600 "
       id="path30664" />
    <path
       d="M95.2500 90.1700 L102.8700 90.1700 "
       id="path30666" />
    <path
       d="M102.8700 86.3600 L102.8700 90.1700 "
       id="path30668" />
    <path
       d="M102.8700 90.1700 L116.8400 90.1700 "
       id="path30670" />
    <path
       d="M99.0600 73.6600 L99.0600 72.3900 "
       id="path30672" />
    <path
       d="M95.2500 76.2000 L95.2500 73.6600 "
       id="path30674" />
    <path
       d="M90.1700 68.5800 L95.2500 68.5800 "
       id="path30676" />
    <path
       d="M116.8400 68.5800 L116.8400 90.1700 "
       id="path30678" />
    <path
       d="M102.8700 68.5800 L116.8400 68.5800 "
       id="path30680" />
  </g>
  <g
     style="fill:#000000; fill-opacity:1.0000;  stroke:#000000; stroke-width:0.1524; stroke-opacity:1;  stroke-linecap:round; stroke-linejoin:round;"
     id="g30690">
    <circle
       cx="116.8400"
       cy="68.5800"
       r="0.4572"
       id="circle30684" />
    <circle
       cx="99.0600"
       cy="73.6600"
       r="0.4572"
       id="circle30686" />
    <circle
       cx="102.8700"
       cy="90.1700"
       r="0.4572"
       id="circle30688" />
  </g>
</svg>
